<svg xmlns="http://www.w3.org/2000/svg" viewBox="0 0 32 32" width="192" height="192" style="image-rendering:pixelated">
  <rect width="32" height="32" fill="#181009"/>
  <rect x="12" y="4" width="8" height="2" fill="#e8a44a"/>
  <rect x="10" y="6" width="12" height="2" fill="#e8a44a"/>
  <rect x="8" y="8" width="16" height="2" fill="#e8a44a"/>
  <rect x="6" y="10" width="20" height="2" fill="#e8a44a"/>
  <rect x="6" y="12" width="20" height="2" fill="#e8a44a"/>
  <rect x="6" y="14" width="20" height="2" fill="#d4922e"/>
  <rect x="6" y="16" width="20" height="2" fill="#d4922e"/>
  <rect x="8" y="18" width="16" height="2" fill="#c0801a"/>
  <rect x="10" y="20" width="12" height="2" fill="#c0801a"/>
  <rect x="12" y="22" width="8" height="2" fill="#a06810"/>
  <rect x="15" y="4" width="2" height="20" fill="#5a3810"/>
  <rect x="6" y="13" width="20" height="2" fill="#5a3810"/>
  <rect x="10" y="7" width="2" height="6" fill="#5a3810"/>
  <rect x="20" y="7" width="2" height="6" fill="#5a3810"/>
  <rect x="10" y="15" width="2" height="6" fill="#5a3810"/>
  <rect x="20" y="15" width="2" height="6" fill="#5a3810"/>
  <rect x="12" y="6" width="2" height="2" fill="#fff4d0"/>
  <rect x="14" y="8" width="2" height="2" fill="#f8e8a0"/>
  <rect x="2" y="26" width="28" height="6" fill="#341d0e"/>
  <rect x="0" y="25" width="32" height="1" fill="#4e2912"/>
  <rect x="13" y="26" width="6" height="1" fill="#5a3810"/>
</svg>